<?xml version="1.0" standalone="no"?><!DOCTYPE svg PUBLIC "-//W3C//DTD SVG 1.1//EN" "http://www.w3.org/Graphics/SVG/1.1/DTD/svg11.dtd"><svg t="1728224897623" class="icon" viewBox="0 0 1024 1024" version="1.1" xmlns="http://www.w3.org/2000/svg" p-id="1408" xmlns:xlink="http://www.w3.org/1999/xlink" width="200" height="200"><path d="M761.620828 0.01024c2.417754-0.625772 50.431496 27.221061 106.267382 60.728282l101.460319 62.008268 0.597327 288.992666v288.423782l-28.216607 17.720712c-16.213171 9.471905-29.411261 17.720712-30.605916 18.972255-1.194655 0.625772 24.006871 63.885583 55.238559 139.774602C998.162463 952.519826 1023.98976 1017.031181 1023.98976 1019.562711c0 2.389309-205.110838 4.209736-465.289569 4.408845L522.32011 1024h-26.73751l-118.213929-0.028444h-34.815652l-11.121667-0.028444-21.532229-0.028444C36.351636 1023.573338 0.853325 1022.008909 0.028444 1014.954757v-0.540439a4.295068 4.295068 0 0 1 0.312886-1.16621c1.791982-6.314604 46.819087-113.833528 99.668337-239.073165l95.458601-227.695501v-129.648481l36.607633-72.731718 36.636079-72.760161h208.922355v240.353152h78.050775V127.155635l100.862991-63.231368C711.78666 29.108616 759.231519 0.01024 761.620828 0.01024z m-205.935718 549.626504h-44.970217c-27.07884 0.170665-27.07884 1.70665-27.07884 18.972254 0 10.751892-16.782054 53.759462-37.204962 98.04702l-37.830733 79.074765H196.065595l-1.791982-47.444859-1.820426-47.444859-69.631304 166.341448-70.257075 165.715676 456.898542 1.877314c58.822523 0.170665 115.198848 0.284442 167.052552 0.34133l20.508239 0.028444 29.781035 0.028445h128.19783c69.915745-0.142221 112.610429-0.455107 113.150868-1.02399 1.194655-1.905759-82.857838-205.5375-91.248865-220.10091-1.820426-2.53153-27.619279 10.751892-57.656313 29.724147l-54.612787 34.787208-104.475399-65.137127-104.4754-64.511355v-149.274951z m-22.812217 189.722547c3.015081 0 52.849249 29.752591 111.671773 66.445558 118.270817 73.98326 130.274253 77.794778 176.524457 50.60216l27.021952-15.814953 20.99179 53.759463 21.617561 53.759462-248.317516-0.028444c-148.933622-0.227553-189.210552-2.275533-186.963464-8.191918 1.223099-3.811517 18.033597-51.227932 37.233405-104.390067 15.075405-39.878712 29.069932-74.66592 35.981863-89.030221l1.962647-3.868406c1.137766-2.104868 1.905759-3.21419 2.275532-3.21419z m-248.54507 50.630605c60.017178 0 109.254019 2.53153 109.254019 5.06306 0 3.128858-13.19809 37.944509-29.411261 77.794778l-30.008589 72.105945-111.671772 1.877315c-7.224817 0.085332-14.193636 0.113777-20.878014 0.142221h-13.055869c-46.420869-0.056888-76.913009-1.479096-75.945908-4.551066 0.597327-3.185746 15.615844-38.598725 31.829015-79.074765l30.008589-73.385933zM932.740895 177.10358c-1.223099 0-34.218324 19.62647-73.869484 43.00757l-72.020613 42.381798-1.820426 253.636575-1.194655 254.233902 75.035694-48.07063 75.064139-47.416415v-276.278126-8.846134l-0.028445-17.407826c-0.142221-111.785549-0.654216-195.781153-1.16621-195.240714z m-335.015317-0.625771v251.105044l0.568883 251.730816 68.465094 42.381798c37.233405 24.006871 69.659748 42.979126 71.45173 42.979126 1.678205 0 3.356411-98.615903 3.583964-224.367534V261.867177l-40.81737-23.409544c-22.186445-13.283423-54.612787-32.255677-71.423286-43.00757l-31.857459-18.972254z m-228.150607 252.982359H231.478574v278.297661h138.096397v-278.297661z m69.033976-70.825959l-16.213171 35.412979c-14.990072 31.032579-16.611389 36.892076-16.782054 118.128597v33.052114l0.568883 115.085071 18.033597-36.692966 17.407826-36.038751-1.194655-114.4593-1.820426-114.487744z m-20.99179-43.00757h-129.705369l-16.213172 34.787208c-8.988355 19.62647-16.213171 36.692966-16.213171 37.944509 0 1.905759 28.245051 3.157302 63.060703 3.157302h63.032258l18.005154-37.944509 18.033597-37.94451z m348.810734-270.077299c-2.1902-0.853325-33.876995 17.43627-67.611768 38.058286l-12.71454 7.7937c-35.953418 22.214889-70.370852 44.657331-70.370851 47.131973 0 6.314604 144.098115 89.172442 151.891814 87.295127 11.406108-3.185746 148.30785-83.512054 148.30785-87.295127 0-1.905759-33.02367-23.409544-73.243712-47.444859-39.622715-24.661087-74.466811-44.884884-76.258793-45.510656z" fill="#1296db" p-id="1409"></path></svg>